<svg width="266" height="403" version="1.1" xmlns="http://www.w3.org/2000/svg" desc="Created with imagetracer.js version 1.2.6" ><path fill="rgb(0,0,0)" stroke="rgb(0,0,0)" stroke-width="1" opacity="0" d="M 0 0 L 83 0.5 L 80 2.5 L 54 37.5 Q 51.4 38.9 52 43.5 L 94 89.5 L 94 91 Q 96.7 89.9 96 92.5 L 106 102.5 L 106 104 Q 108.7 102.9 108 105.5 L 119 116.5 L 119 119 L 113.5 119 L 95.5 124 L 74.5 134 Q 54.2 146.2 39 163.5 Q 18.8 185.8 9 218.5 L 4 243.5 L 4 279.5 L 9 305.5 Q 14.3 323.7 23 338.5 Q 34.4 357.6 50.5 372 Q 63.8 383.7 80.5 392 L 99.5 399 L 121 402.5 L 0 403 L 0 0 Z " /><path fill="rgb(0,0,0)" stroke="rgb(0,0,0)" stroke-width="1" opacity="0" d="M 183.5 0 L 265.5 0 L 266 0.5 L 266 403 L 141 402.5 L 159.5 400 L 179.5 393 Q 204.5 381.5 222 362.5 Q 240.8 342.8 252 315.5 L 257 300.5 L 261 281.5 L 261 273.5 L 262 272.5 L 262 246.5 L 261 245.5 L 261 237.5 L 259 226.5 L 251 201.5 Q 237.6 170.9 214.5 150 Q 198 134.5 175.5 125 L 148 117.5 L 211 49.5 L 215 44.5 L 215 39.5 L 184.5 1 L 183.5 0 Z " /><path fill="rgb(0,0,0)" stroke="rgb(0,0,0)" stroke-width="1" opacity="0" d="M 93 9 L 123 9.5 L 104.5 32 Q 102.3 32.8 103 30.5 L 93 9 Z " /><path fill="rgb(0,0,0)" stroke="rgb(0,0,0)" stroke-width="1" opacity="0" d="M 143.5 9 L 174 9.5 L 163.5 33 L 143.5 9 Z " /><path fill="rgb(0,0,0)" stroke="rgb(0,0,0)" stroke-width="1" opacity="0" d="M 133.5 12 L 154 38 L 113.5 38 L 113 36.5 L 133.5 12 Z " /><path fill="rgb(0,0,0)" stroke="rgb(0,0,0)" stroke-width="1" opacity="0" d="M 83.5 14 L 95 38 L 66 37.5 L 83.5 14 Z " /><path fill="rgb(0,0,0)" stroke="rgb(0,0,0)" stroke-width="1" opacity="0" d="M 182.5 14 L 201 37.5 L 172 38 L 182.5 14 Z " /><path fill="rgb(0,0,0)" stroke="rgb(0,0,0)" stroke-width="1" opacity="0" d="M 67.5 46 L 97.5 46 L 100 48.5 L 120 103.5 L 117 101.5 L 72 52.5 L 67.5 46 Z " /><path fill="rgb(0,0,0)" stroke="rgb(0,0,0)" stroke-width="1" opacity="0" d="M 110 46 L 157.5 46 L 158 47.5 L 133.5 112 L 110 46 Z " /><path fill="rgb(0,0,0)" stroke="rgb(0,0,0)" stroke-width="1" opacity="0" d="M 169.5 46 L 200 46.5 L 147.5 104 L 148 102.5 L 167 48.5 L 169.5 46 Z " /><path fill="rgb(0,0,0)" stroke="rgb(0,0,0)" stroke-width="1" opacity="0" d="M 122.5 125 L 126.5 125 L 131.5 130 L 136.5 130 L 142.5 125 Q 171.2 129.8 185 149.5 Q 202.5 171.5 211 202.5 L 217 232.5 L 218 255.5 L 219 256.5 L 219 271.5 L 218 272.5 L 218 286.5 L 217 287.5 L 216 300.5 L 207 332.5 Q 196.6 358.6 178.5 377 Q 168.3 387.8 152.5 393 L 143.5 395 L 122.5 395 L 113.5 393 L 101.5 388 Q 89.6 380.9 81 370.5 Q 61 347 52 312.5 L 48 290.5 L 48 281.5 L 47 280.5 L 47 247.5 L 48 246.5 L 48 236.5 L 49 235.5 L 52 212.5 L 62 180.5 Q 72.1 155.6 90.5 139 L 104.5 130 L 122.5 125 Z " /><path fill="rgb(57,81,127)" stroke="rgb(57,81,127)" stroke-width="1" opacity="0.49411764705882355" d="M 83.5 0 L 183 0.5 L 83.5 1 L 83.5 0 Z " /><path fill="rgb(57,81,127)" stroke="rgb(57,81,127)" stroke-width="1" opacity="0.49411764705882355" d="M 81.5 1 L 81 2.5 L 77.5 7 L 80 3.5 L 81.5 1 Z " /><path fill="rgb(57,81,127)" stroke="rgb(57,81,127)" stroke-width="1" opacity="0.49411764705882355" d="M 184.5 1 L 190 7.5 L 186 4.5 L 184.5 1 Z " /><path fill="rgb(57,81,127)" stroke="rgb(57,81,127)" stroke-width="1" opacity="0.49411764705882355" d="M 76.5 8 L 75 10.5 L 71.5 15 L 74 11.5 L 76.5 8 Z " /><path fill="rgb(57,81,127)" stroke="rgb(57,81,127)" stroke-width="1" opacity="0.49411764705882355" d="M 92 8 L 123.5 8 L 124 9.5 L 103.5 34 L 98 22.5 L 99 22.5 L 103 32 L 108 28.5 L 123 9.5 L 93 9 L 94 12.5 L 93 12.5 L 92 8 Z " /><path fill="rgb(57,81,127)" stroke="rgb(57,81,127)" stroke-width="1" opacity="0.49411764705882355" d="M 142.5 8 L 174.5 8 L 175 9.5 L 172.5 14 L 172 12.5 L 174 9.5 L 142.5 9 L 142.5 8 Z " /><path fill="rgb(57,81,127)" stroke="rgb(57,81,127)" stroke-width="1" opacity="0.49411764705882355" d="M 190.5 9 L 193.5 13 L 190.5 9 Z " /><path fill="rgb(57,81,127)" stroke="rgb(57,81,127)" stroke-width="1" opacity="0.49411764705882355" d="M 143.5 10 L 154 21.5 L 148 16.5 L 143.5 10 Z " /><path fill="rgb(57,81,127)" stroke="rgb(57,81,127)" stroke-width="1" opacity="0.49411764705882355" d="M 133.5 11 L 134.5 13 L 133.5 12 L 129 15.5 L 133.5 11 Z " /><path fill="rgb(57,81,127)" stroke="rgb(57,81,127)" stroke-width="1" opacity="0.49411764705882355" d="M 83.5 13 Q 85.8 12.3 85 14.5 L 87 18.5 L 86 18.5 L 83.5 14 L 80.5 18 L 82 15.5 L 83.5 13 Z " /><path fill="rgb(57,81,127)" stroke="rgb(57,81,127)" stroke-width="1" opacity="0.49411764705882355" d="M 182.5 13 L 189 20.5 L 185 17.5 L 182.5 14 L 181.5 16 L 181 14.5 L 182.5 13 Z " /><path fill="rgb(57,81,127)" stroke="rgb(57,81,127)" stroke-width="1" opacity="0.49411764705882355" d="M 135.5 14 L 155 36.5 L 155 39 L 111 38.5 Q 112.3 35.8 113.5 38 L 153.5 38 L 154 36.5 L 135.5 14 Z " /><path fill="rgb(57,81,127)" stroke="rgb(57,81,127)" stroke-width="1" opacity="0.49411764705882355" d="M 194.5 14 L 211 34.5 L 207 31.5 L 194.5 14 Z " /><path fill="rgb(57,81,127)" stroke="rgb(57,81,127)" stroke-width="1" opacity="0.49411764705882355" d="M 70.5 16 L 69 18.5 L 57.5 34 L 59 31.5 L 70.5 16 Z " /><path fill="rgb(57,81,127)" stroke="rgb(57,81,127)" stroke-width="1" opacity="0.49411764705882355" d="M 128.5 17 L 126 20.5 L 121.5 26 L 125 21.5 L 128.5 17 Z " /><path fill="rgb(57,81,127)" stroke="rgb(57,81,127)" stroke-width="1" opacity="0.49411764705882355" d="M 170.5 17 L 171 18.5 L 169.5 21 L 169 19.5 L 170.5 17 Z " /><path fill="rgb(57,81,127)" stroke="rgb(57,81,127)" stroke-width="1" opacity="0.49411764705882355" d="M 79.5 19 L 77.5 22 L 79.5 19 Z " /><path fill="rgb(57,81,127)" stroke="rgb(57,81,127)" stroke-width="1" opacity="0.49411764705882355" d="M 178.5 21 L 179 22.5 L 177.5 25 L 177 23.5 L 178.5 21 Z " /><path fill="rgb(57,81,127)" stroke="rgb(57,81,127)" stroke-width="1" opacity="0.49411764705882355" d="M 88.5 22 L 94 33.5 L 93 33.5 L 88 23.5 L 88.5 22 Z " /><path fill="rgb(57,81,127)" stroke="rgb(57,81,127)" stroke-width="1" opacity="0.49411764705882355" d="M 189.5 22 L 192.5 26 L 189.5 22 Z " /><path fill="rgb(57,81,127)" stroke="rgb(57,81,127)" stroke-width="1" opacity="0.49411764705882355" d="M 76.5 23 L 74.5 26 L 76.5 23 Z " /><path fill="rgb(57,81,127)" stroke="rgb(57,81,127)" stroke-width="1" opacity="0.49411764705882355" d="M 154.5 23 L 158.5 28 L 154.5 23 Z " /><path fill="rgb(57,81,127)" stroke="rgb(57,81,127)" stroke-width="1" opacity="0.49411764705882355" d="M 167.5 24 L 168 25.5 L 165.5 30 L 165 28.5 L 167.5 24 Z " /><path fill="rgb(57,81,127)" stroke="rgb(57,81,127)" stroke-width="1" opacity="0.49411764705882355" d="M 73.5 27 L 71.5 30 L 73.5 27 Z " /><path fill="rgb(57,81,127)" stroke="rgb(57,81,127)" stroke-width="1" opacity="0.49411764705882355" d="M 120.5 27 L 117 31.5 L 113.5 36 L 116 32.5 L 120.5 27 Z " /><path fill="rgb(57,81,127)" stroke="rgb(57,81,127)" stroke-width="1" opacity="0.49411764705882355" d="M 193.5 27 L 199 33.5 L 195 30.5 L 193.5 27 Z " /><path fill="rgb(57,81,127)" stroke="rgb(57,81,127)" stroke-width="1" opacity="0.49411764705882355" d="M 175.5 28 L 176 29.5 L 172.5 36 L 172 34.5 L 175.5 28 Z " /><path fill="rgb(57,81,127)" stroke="rgb(57,81,127)" stroke-width="1" opacity="0.49411764705882355" d="M 159.5 29 L 163.5 34 L 159.5 29 Z " /><path fill="rgb(57,81,127)" stroke="rgb(57,81,127)" stroke-width="1" opacity="0.49411764705882355" d="M 70.5 31 L 69 33.5 L 66 37.5 L 94.5 38 L 96 37.5 L 95.5 39 L 65 39 L 70.5 31 Z " /><path fill="rgb(57,81,127)" stroke="rgb(57,81,127)" stroke-width="1" opacity="0.49411764705882355" d="M 56.5 35 L 54.5 38 L 56.5 35 Z " /><path fill="rgb(57,81,127)" stroke="rgb(57,81,127)" stroke-width="1" opacity="0.49411764705882355" d="M 199.5 35 L 202 39 L 171.5 39 L 171 37.5 L 172.5 38 L 201 37.5 L 199.5 35 Z " /><path fill="rgb(57,81,127)" stroke="rgb(57,81,127)" stroke-width="1" opacity="0.49411764705882355" d="M 211.5 36 L 215 40.5 L 214 40.5 L 211.5 36 Z " /><path fill="rgb(57,81,127)" stroke="rgb(57,81,127)" stroke-width="1" opacity="0.49411764705882355" d="M 53.5 39 L 53 40.5 L 52.5 42 L 52 40.5 L 53.5 39 Z " /><path fill="rgb(57,81,127)" stroke="rgb(57,81,127)" stroke-width="1" opacity="0.49411764705882355" d="M 214.5 44 L 211 48.5 L 176.5 86 L 186 75.5 L 214.5 44 Z " /><path fill="rgb(57,81,127)" stroke="rgb(57,81,127)" stroke-width="1" opacity="0.49411764705882355" d="M 53.5 45 L 94 88.5 L 84 79.5 L 53.5 45 Z " /><path fill="rgb(57,81,127)" stroke="rgb(57,81,127)" stroke-width="1" opacity="0.49411764705882355" d="M 66.5 46 L 71.5 52 L 66.5 46 Z " /><path fill="rgb(57,81,127)" stroke="rgb(57,81,127)" stroke-width="1" opacity="0.49411764705882355" d="M 98.5 46 L 99.5 48 L 98.5 46 Z " /><path fill="rgb(57,81,127)" stroke="rgb(57,81,127)" stroke-width="1" opacity="0.49411764705882355" d="M 109.5 46 L 112 53.5 L 111 53.5 L 109.5 46 Z " /><path fill="rgb(57,81,127)" stroke="rgb(57,81,127)" stroke-width="1" opacity="0.49411764705882355" d="M 168.5 46 L 167.5 48 L 168.5 46 Z " /><path fill="rgb(57,81,127)" stroke="rgb(57,81,127)" stroke-width="1" opacity="0.49411764705882355" d="M 200.5 46 L 200 47.5 L 188.5 60 L 199 48.5 L 200.5 46 Z " /><path fill="rgb(57,81,127)" stroke="rgb(57,81,127)" stroke-width="1" opacity="0.49411764705882355" d="M 157.5 48 L 158 49.5 L 156.5 52 L 156 50.5 L 157.5 48 Z " /><path fill="rgb(57,81,127)" stroke="rgb(57,81,127)" stroke-width="1" opacity="0.49411764705882355" d="M 100.5 49 L 102 52.5 L 101 52.5 L 100.5 49 Z " /><path fill="rgb(57,81,127)" stroke="rgb(57,81,127)" stroke-width="1" opacity="0.49411764705882355" d="M 72.5 53 L 94 75.5 L 82 64.5 L 72.5 53 Z " /><path fill="rgb(57,81,127)" stroke="rgb(57,81,127)" stroke-width="1" opacity="0.49411764705882355" d="M 112.5 55 L 114 58.5 L 113 58.5 L 112.5 55 Z " /><path fill="rgb(57,81,127)" stroke="rgb(57,81,127)" stroke-width="1" opacity="0.49411764705882355" d="M 164.5 55 L 165 56.5 L 163.5 59 L 163 57.5 L 164.5 55 Z " /><path fill="rgb(57,81,127)" stroke="rgb(57,81,127)" stroke-width="1" opacity="0.49411764705882355" d="M 103.5 56 L 106 63.5 L 105 63.5 L 103.5 56 Z " /><path fill="rgb(57,81,127)" stroke="rgb(57,81,127)" stroke-width="1" opacity="0.49411764705882355" d="M 162.5 60 L 163 61.5 L 159.5 70 L 159 68.5 L 162.5 60 Z " /><path fill="rgb(57,81,127)" stroke="rgb(57,81,127)" stroke-width="1" opacity="0.49411764705882355" d="M 187.5 61 L 178 71.5 L 154.5 97 L 166 84.5 L 187.5 61 Z " /><path fill="rgb(57,81,127)" stroke="rgb(57,81,127)" stroke-width="1" opacity="0.49411764705882355" d="M 151.5 64 L 152 65.5 L 149.5 71 L 149 69.5 L 151.5 64 Z " /><path fill="rgb(57,81,127)" stroke="rgb(57,81,127)" stroke-width="1" opacity="0.49411764705882355" d="M 106.5 65 L 108 68.5 L 107 68.5 L 106.5 65 Z " /><path fill="rgb(57,81,127)" stroke="rgb(57,81,127)" stroke-width="1" opacity="0.49411764705882355" d="M 117.5 69 L 119 72.5 L 118 72.5 L 117.5 69 Z " /><path fill="rgb(57,81,127)" stroke="rgb(57,81,127)" stroke-width="1" opacity="0.49411764705882355" d="M 119.5 74 L 121 77.5 L 120 77.5 L 119.5 74 Z " /><path fill="rgb(57,81,127)" stroke="rgb(57,81,127)" stroke-width="1" opacity="0.49411764705882355" d="M 110.5 76 L 112 79.5 L 111 79.5 L 110.5 76 Z " /><path fill="rgb(57,81,127)" stroke="rgb(57,81,127)" stroke-width="1" opacity="0.49411764705882355" d="M 94.5 77 L 119.5 104 L 120 102.5 L 119 100.5 L 120 100.5 L 122 106.5 L 116 101.5 L 94.5 77 Z " /><path fill="rgb(57,81,127)" stroke="rgb(57,81,127)" stroke-width="1" opacity="0.49411764705882355" d="M 146.5 78 L 147 79.5 L 145.5 82 L 145 80.5 L 146.5 78 Z " /><path fill="rgb(57,81,127)" stroke="rgb(57,81,127)" stroke-width="1" opacity="0.49411764705882355" d="M 112.5 81 L 114 84.5 L 113 84.5 L 112.5 81 Z " /><path fill="rgb(57,81,127)" stroke="rgb(57,81,127)" stroke-width="1" opacity="0.49411764705882355" d="M 154.5 82 L 155 83.5 L 153.5 86 L 153 84.5 L 154.5 82 Z " /><path fill="rgb(57,81,127)" stroke="rgb(57,81,127)" stroke-width="1" opacity="0.49411764705882355" d="M 123.5 85 L 125 88.5 L 124 88.5 L 123.5 85 Z " /><path fill="rgb(57,81,127)" stroke="rgb(57,81,127)" stroke-width="1" opacity="0.49411764705882355" d="M 143.5 86 L 144 87.5 L 141.5 93 L 141 91.5 L 143.5 86 Z " /><path fill="rgb(57,81,127)" stroke="rgb(57,81,127)" stroke-width="1" opacity="0.49411764705882355" d="M 175.5 87 L 165 98.5 L 153.5 111 L 164 99.5 L 175.5 87 Z " /><path fill="rgb(57,81,127)" stroke="rgb(57,81,127)" stroke-width="1" opacity="0.49411764705882355" d="M 125.5 90 L 127 94.5 L 126 94.5 L 125.5 90 Z " /><path fill="rgb(57,81,127)" stroke="rgb(57,81,127)" stroke-width="1" opacity="0.49411764705882355" d="M 151.5 90 L 152 91.5 L 149.5 97 L 149 95.5 L 151.5 90 Z " /><path fill="rgb(57,81,127)" stroke="rgb(57,81,127)" stroke-width="1" opacity="0.49411764705882355" d="M 96.5 92 L 121 118.5 L 119 119 L 119 116.5 L 108 105.5 L 108 104 Q 105.3 105.1 106 102.5 L 96.5 92 Z " /><path fill="rgb(57,81,127)" stroke="rgb(57,81,127)" stroke-width="1" opacity="0.49411764705882355" d="M 140.5 94 L 141 95.5 L 139.5 98 L 139 96.5 L 140.5 94 Z " /><path fill="rgb(57,81,127)" stroke="rgb(57,81,127)" stroke-width="1" opacity="0.49411764705882355" d="M 153.5 98 L 145.5 107 L 146 105.5 Q 145.3 103.3 147.5 104 L 147 102.5 L 147.5 101 L 148.5 103 L 153.5 98 Z " /><path fill="rgb(57,81,127)" stroke="rgb(57,81,127)" stroke-width="1" opacity="0.49411764705882355" d="M 129.5 101 L 131 104.5 L 130 104.5 L 129.5 101 Z " /><path fill="rgb(57,81,127)" stroke="rgb(57,81,127)" stroke-width="1" opacity="0.49411764705882355" d="M 136.5 105 L 137 106.5 L 135.5 109 L 135 107.5 L 136.5 105 Z " /><path fill="rgb(57,81,127)" stroke="rgb(57,81,127)" stroke-width="1" opacity="0.49411764705882355" d="M 134.5 110 L 135 111.5 L 133 112.5 L 134.5 110 Z " /><path fill="rgb(57,81,127)" stroke="rgb(57,81,127)" stroke-width="1" opacity="0.49411764705882355" d="M 152.5 112 L 148.5 118 L 150 118.5 L 146.5 119 L 152.5 112 Z " /><path fill="rgb(57,81,127)" stroke="rgb(57,81,127)" stroke-width="1" opacity="0.49411764705882355" d="M 113.5 119 L 117 119.5 L 113.5 120 L 113.5 119 Z " /><path fill="rgb(57,81,127)" stroke="rgb(57,81,127)" stroke-width="1" opacity="0.49411764705882355" d="M 152.5 119 L 155 119.5 L 152.5 120 L 152.5 119 Z " /><path fill="rgb(57,81,127)" stroke="rgb(57,81,127)" stroke-width="1" opacity="0.49411764705882355" d="M 109.5 120 L 112 120.5 L 109.5 121 L 109.5 120 Z " /><path fill="rgb(57,81,127)" stroke="rgb(57,81,127)" stroke-width="1" opacity="0.49411764705882355" d="M 157.5 120 L 160 120.5 L 157.5 121 L 157.5 120 Z " /><path fill="rgb(57,81,127)" stroke="rgb(57,81,127)" stroke-width="1" opacity="0.49411764705882355" d="M 161.5 121 L 164 121.5 L 161.5 122 L 161.5 121 Z " /><path fill="rgb(57,81,127)" stroke="rgb(57,81,127)" stroke-width="1" opacity="0.49411764705882355" d="M 101.5 122 L 104 122.5 L 93.5 126 L 93.5 125 L 101.5 122 Z " /><path fill="rgb(57,81,127)" stroke="rgb(57,81,127)" stroke-width="1" opacity="0.49411764705882355" d="M 118.5 125 L 122 125.5 L 118.5 126 L 118.5 125 Z " /><path fill="rgb(57,81,127)" stroke="rgb(57,81,127)" stroke-width="1" opacity="0.49411764705882355" d="M 127.5 125 L 131.5 130 L 127.5 125 Z " /><path fill="rgb(57,81,127)" stroke="rgb(57,81,127)" stroke-width="1" opacity="0.49411764705882355" d="M 140.5 125 L 136.5 130 L 135 129.5 L 140.5 125 Z " /><path fill="rgb(57,81,127)" stroke="rgb(57,81,127)" stroke-width="1" opacity="0.49411764705882355" d="M 143.5 125 L 147 125.5 L 143.5 126 L 143.5 125 Z " /><path fill="rgb(57,81,127)" stroke="rgb(57,81,127)" stroke-width="1" opacity="0.49411764705882355" d="M 174.5 125 L 180 127.5 L 178.5 128 L 174.5 126 L 174.5 125 Z " /><path fill="rgb(57,81,127)" stroke="rgb(57,81,127)" stroke-width="1" opacity="0.49411764705882355" d="M 90.5 126 L 92 126.5 L 86.5 129 L 86.5 128 L 90.5 126 Z " /><path fill="rgb(57,81,127)" stroke="rgb(57,81,127)" stroke-width="1" opacity="0.49411764705882355" d="M 114.5 126 L 117 126.5 L 114.5 127 L 114.5 126 Z " /><path fill="rgb(57,81,127)" stroke="rgb(57,81,127)" stroke-width="1" opacity="0.49411764705882355" d="M 149.5 126 L 152 126.5 L 149.5 127 L 149.5 126 Z " /><path fill="rgb(57,81,127)" stroke="rgb(57,81,127)" stroke-width="1" opacity="0.49411764705882355" d="M 110.5 127 L 113 127.5 L 110.5 128 L 110.5 127 Z " /><path fill="rgb(57,81,127)" stroke="rgb(57,81,127)" stroke-width="1" opacity="0.49411764705882355" d="M 107.5 128 L 109 128.5 L 105.5 130 L 105.5 129 L 107.5 128 Z " /><path fill="rgb(57,81,127)" stroke="rgb(57,81,127)" stroke-width="1" opacity="0.49411764705882355" d="M 161.5 130 L 166 132.5 L 164.5 132 Q 160.7 131.8 161.5 130 Z " /><path fill="rgb(57,81,127)" stroke="rgb(57,81,127)" stroke-width="1" opacity="0.49411764705882355" d="M 78.5 132 L 77.5 134 L 73.5 136 L 74.5 134 L 78.5 132 Z " /><path fill="rgb(57,81,127)" stroke="rgb(57,81,127)" stroke-width="1" opacity="0.49411764705882355" d="M 99.5 132 L 98.5 134 L 91.5 139 L 94.5 135 L 99.5 132 Z " /><path fill="rgb(57,81,127)" stroke="rgb(57,81,127)" stroke-width="1" opacity="0.49411764705882355" d="M 189.5 132 L 193 134.5 L 191.5 134 L 189.5 132 Z " /><path fill="rgb(57,81,127)" stroke="rgb(57,81,127)" stroke-width="1" opacity="0.49411764705882355" d="M 167.5 133 L 172 136.5 L 169.5 135 L 167.5 133 Z " /><path fill="rgb(57,81,127)" stroke="rgb(57,81,127)" stroke-width="1" opacity="0.49411764705882355" d="M 194.5 135 L 202 140.5 L 199.5 139 Q 194.9 137.8 194.5 135 Z " /><path fill="rgb(57,81,127)" stroke="rgb(57,81,127)" stroke-width="1" opacity="0.49411764705882355" d="M 71.5 136 L 70.5 138 L 71.5 136 Z " /><path fill="rgb(57,81,127)" stroke="rgb(57,81,127)" stroke-width="1" opacity="0.49411764705882355" d="M 173.5 137 L 189 153.5 L 185 150.5 L 173.5 137 Z " /><path fill="rgb(57,81,127)" stroke="rgb(57,81,127)" stroke-width="1" opacity="0.49411764705882355" d="M 68.5 138 L 67.5 140 L 68.5 138 Z " /><path fill="rgb(57,81,127)" stroke="rgb(57,81,127)" stroke-width="1" opacity="0.49411764705882355" d="M 89.5 139 L 82 147.5 L 75.5 156 L 77 153.5 L 89.5 139 Z " /><path fill="rgb(57,81,127)" stroke="rgb(57,81,127)" stroke-width="1" opacity="0.49411764705882355" d="M 65.5 140 L 64.5 142 L 65.5 140 Z " /><path fill="rgb(57,81,127)" stroke="rgb(57,81,127)" stroke-width="1" opacity="0.49411764705882355" d="M 203.5 141 L 205.5 144 L 203.5 141 Z " /><path fill="rgb(57,81,127)" stroke="rgb(57,81,127)" stroke-width="1" opacity="0.49411764705882355" d="M 62.5 142 L 59.5 146 L 54.5 150 L 58.5 145 L 62.5 142 Z " /><path fill="rgb(57,81,127)" stroke="rgb(57,81,127)" stroke-width="1" opacity="0.49411764705882355" d="M 207.5 144 L 212.5 150 L 207.5 144 Z " /><path fill="rgb(57,81,127)" stroke="rgb(57,81,127)" stroke-width="1" opacity="0.49411764705882355" d="M 52.5 150 L 39.5 164 L 52.5 150 Z " /><path fill="rgb(57,81,127)" stroke="rgb(57,81,127)" stroke-width="1" opacity="0.49411764705882355" d="M 214.5 150 L 222.5 159 L 214.5 150 Z " /><path fill="rgb(57,81,127)" stroke="rgb(57,81,127)" stroke-width="1" opacity="0.49411764705882355" d="M 189.5 155 L 190.5 157 L 189.5 155 Z " /><path fill="rgb(57,81,127)" stroke="rgb(57,81,127)" stroke-width="1" opacity="0.49411764705882355" d="M 74.5 157 L 73.5 159 L 74.5 157 Z " /><path fill="rgb(57,81,127)" stroke="rgb(57,81,127)" stroke-width="1" opacity="0.49411764705882355" d="M 191.5 158 L 192.5 160 L 191.5 158 Z " /><path fill="rgb(57,81,127)" stroke="rgb(57,81,127)" stroke-width="1" opacity="0.49411764705882355" d="M 72.5 160 L 72 161.5 L 70.5 164 L 71 162.5 L 72.5 160 Z " /><path fill="rgb(57,81,127)" stroke="rgb(57,81,127)" stroke-width="1" opacity="0.49411764705882355" d="M 223.5 160 L 228.5 166 L 223.5 160 Z " /><path fill="rgb(57,81,127)" stroke="rgb(57,81,127)" stroke-width="1" opacity="0.49411764705882355" d="M 193.5 161 L 196 164.5 L 194 163.5 L 193.5 161 Z " /><path fill="rgb(57,81,127)" stroke="rgb(57,81,127)" stroke-width="1" opacity="0.49411764705882355" d="M 38.5 165 L 34.5 170 L 38.5 165 Z " /><path fill="rgb(57,81,127)" stroke="rgb(57,81,127)" stroke-width="1" opacity="0.49411764705882355" d="M 69.5 165 L 69 166.5 L 63.5 178 L 63 176.5 L 69.5 165 Z " /><path fill="rgb(57,81,127)" stroke="rgb(57,81,127)" stroke-width="1" opacity="0.49411764705882355" d="M 229.5 167 L 235 173.5 L 232 171.5 L 229.5 167 Z " /><path fill="rgb(57,81,127)" stroke="rgb(57,81,127)" stroke-width="1" opacity="0.49411764705882355" d="M 198.5 170 L 200 172.5 L 199 172.5 L 198.5 170 Z " /><path fill="rgb(57,81,127)" stroke="rgb(57,81,127)" stroke-width="1" opacity="0.49411764705882355" d="M 33.5 171 L 31.5 174 L 33.5 171 Z " /><path fill="rgb(57,81,127)" stroke="rgb(57,81,127)" stroke-width="1" opacity="0.49411764705882355" d="M 30.5 175 L 29 177.5 L 25.5 183 L 26 181.5 L 30.5 175 Z " /><path fill="rgb(57,81,127)" stroke="rgb(57,81,127)" stroke-width="1" opacity="0.49411764705882355" d="M 235.5 175 L 241 182.5 L 239 181.5 L 235.5 175 Z " /><path fill="rgb(57,81,127)" stroke="rgb(57,81,127)" stroke-width="1" opacity="0.49411764705882355" d="M 202.5 178 L 204 181.5 L 203 181.5 L 202.5 178 Z " /><path fill="rgb(57,81,127)" stroke="rgb(57,81,127)" stroke-width="1" opacity="0.49411764705882355" d="M 61.5 181 L 62 182.5 L 60.5 185 L 60 183.5 L 61.5 181 Z " /><path fill="rgb(57,81,127)" stroke="rgb(57,81,127)" stroke-width="1" opacity="0.49411764705882355" d="M 24.5 184 L 24 185.5 L 22.5 188 L 23 186.5 L 24.5 184 Z " /><path fill="rgb(57,81,127)" stroke="rgb(57,81,127)" stroke-width="1" opacity="0.49411764705882355" d="M 241.5 184 L 244 187.5 L 242 186.5 L 241.5 184 Z " /><path fill="rgb(57,81,127)" stroke="rgb(57,81,127)" stroke-width="1" opacity="0.49411764705882355" d="M 206.5 188 L 209 195.5 L 208 195.5 L 206.5 188 Z " /><path fill="rgb(57,81,127)" stroke="rgb(57,81,127)" stroke-width="1" opacity="0.49411764705882355" d="M 16.5 199 L 17 200.5 L 15.5 203 L 15 201.5 L 16.5 199 Z " /><path fill="rgb(57,81,127)" stroke="rgb(57,81,127)" stroke-width="1" opacity="0.49411764705882355" d="M 249.5 199 L 251 202.5 L 250 202.5 L 249.5 199 Z " /><path fill="rgb(57,81,127)" stroke="rgb(57,81,127)" stroke-width="1" opacity="0.49411764705882355" d="M 54.5 201 L 55 203.5 L 54 203.5 L 54.5 201 Z " /><path fill="rgb(57,81,127)" stroke="rgb(57,81,127)" stroke-width="1" opacity="0.49411764705882355" d="M 53.5 205 L 54 207.5 L 53 207.5 L 53.5 205 Z " /><path fill="rgb(57,81,127)" stroke="rgb(57,81,127)" stroke-width="1" opacity="0.49411764705882355" d="M 212.5 207 L 213 209.5 L 212 209.5 L 212.5 207 Z " /><path fill="rgb(57,81,127)" stroke="rgb(57,81,127)" stroke-width="1" opacity="0.49411764705882355" d="M 52.5 209 L 53 211.5 L 52 211.5 L 52.5 209 Z " /><path fill="rgb(57,81,127)" stroke="rgb(57,81,127)" stroke-width="1" opacity="0.49411764705882355" d="M 213.5 212 L 214 214.5 L 213 214.5 L 213.5 212 Z " /><path fill="rgb(57,81,127)" stroke="rgb(57,81,127)" stroke-width="1" opacity="0.49411764705882355" d="M 51.5 214 L 52 216.5 L 51 216.5 L 51.5 214 Z " /><path fill="rgb(57,81,127)" stroke="rgb(57,81,127)" stroke-width="1" opacity="0.49411764705882355" d="M 214.5 216 L 215 219.5 L 214 219.5 L 214.5 216 Z " /><path fill="rgb(57,81,127)" stroke="rgb(57,81,127)" stroke-width="1" opacity="0.49411764705882355" d="M 256.5 218 L 257 220.5 L 256 220.5 L 256.5 218 Z " /><path fill="rgb(57,81,127)" stroke="rgb(57,81,127)" stroke-width="1" opacity="0.49411764705882355" d="M 50.5 219 L 51 221.5 L 50 221.5 L 50.5 219 Z " /><path fill="rgb(57,81,127)" stroke="rgb(57,81,127)" stroke-width="1" opacity="0.49411764705882355" d="M 215.5 222 L 216 224.5 L 215 224.5 L 215.5 222 Z " /><path fill="rgb(57,81,127)" stroke="rgb(57,81,127)" stroke-width="1" opacity="0.49411764705882355" d="M 257.5 222 L 258 224.5 L 257 224.5 L 257.5 222 Z " /><path fill="rgb(57,81,127)" stroke="rgb(57,81,127)" stroke-width="1" opacity="0.49411764705882355" d="M 49.5 225 L 50 228.5 L 49 228.5 L 49.5 225 Z " /><path fill="rgb(57,81,127)" stroke="rgb(57,81,127)" stroke-width="1" opacity="0.49411764705882355" d="M 7.5 226 L 8 228.5 L 7 228.5 L 7.5 226 Z " /><path fill="rgb(57,81,127)" stroke="rgb(57,81,127)" stroke-width="1" opacity="0.49411764705882355" d="M 258.5 226 L 259 228.5 L 258 228.5 L 258.5 226 Z " /><path fill="rgb(57,81,127)" stroke="rgb(57,81,127)" stroke-width="1" opacity="0.49411764705882355" d="M 216.5 228 L 217 231.5 L 216 231.5 L 216.5 228 Z " /><path fill="rgb(57,81,127)" stroke="rgb(57,81,127)" stroke-width="1" opacity="0.49411764705882355" d="M 6.5 230 L 7 233.5 L 6 233.5 L 6.5 230 Z " /><path fill="rgb(57,81,127)" stroke="rgb(57,81,127)" stroke-width="1" opacity="0.49411764705882355" d="M 48.5 231 L 49 235.5 L 48 235.5 L 48.5 231 Z " /><path fill="rgb(57,81,127)" stroke="rgb(57,81,127)" stroke-width="1" opacity="0.49411764705882355" d="M 259.5 231 L 260 234.5 L 259 234.5 L 259.5 231 Z " /><path fill="rgb(57,81,127)" stroke="rgb(57,81,127)" stroke-width="1" opacity="0.49411764705882355" d="M 217.5 235 L 218 240.5 L 217 240.5 L 217.5 235 Z " /><path fill="rgb(57,81,127)" stroke="rgb(57,81,127)" stroke-width="1" opacity="0.49411764705882355" d="M 5.5 236 L 6 239.5 L 5 239.5 L 5.5 236 Z " /><path fill="rgb(57,81,127)" stroke="rgb(57,81,127)" stroke-width="1" opacity="0.49411764705882355" d="M 260.5 237 L 261 241.5 L 260 241.5 L 260.5 237 Z " /><path fill="rgb(57,81,127)" stroke="rgb(57,81,127)" stroke-width="1" opacity="0.49411764705882355" d="M 47.5 240 L 48 246.5 L 47 246.5 L 47.5 240 Z " /><path fill="rgb(57,81,127)" stroke="rgb(57,81,127)" stroke-width="1" opacity="0.49411764705882355" d="M 4.5 243 L 5 248.5 L 4 248.5 L 4.5 243 Z " /><path fill="rgb(57,81,127)" stroke="rgb(57,81,127)" stroke-width="1" opacity="0.49411764705882355" d="M 218.5 246 L 219 255.5 L 218 255.5 L 218.5 246 Z " /><path fill="rgb(57,81,127)" stroke="rgb(57,81,127)" stroke-width="1" opacity="0.49411764705882355" d="M 261.5 246 L 262 256.5 L 261 256.5 L 261.5 246 Z " /><path fill="rgb(57,81,127)" stroke="rgb(57,81,127)" stroke-width="1" opacity="0.49411764705882355" d="M 46.5 257 L 47 271.5 L 46 271.5 L 46.5 257 Z " /><path fill="rgb(57,81,127)" stroke="rgb(57,81,127)" stroke-width="1" opacity="0.49411764705882355" d="M 261.5 262 L 262 272.5 L 261 272.5 L 261.5 262 Z " /><path fill="rgb(57,81,127)" stroke="rgb(57,81,127)" stroke-width="1" opacity="0.49411764705882355" d="M 218.5 272 L 219 281.5 L 218 281.5 L 218.5 272 Z " /><path fill="rgb(57,81,127)" stroke="rgb(57,81,127)" stroke-width="1" opacity="0.49411764705882355" d="M 4.5 274 L 5 279.5 L 4 279.5 L 4.5 274 Z " /><path fill="rgb(57,81,127)" stroke="rgb(57,81,127)" stroke-width="1" opacity="0.49411764705882355" d="M 260.5 277 L 261 281.5 L 260 281.5 L 260.5 277 Z " /><path fill="rgb(57,81,127)" stroke="rgb(57,81,127)" stroke-width="1" opacity="0.49411764705882355" d="M 47.5 281 L 48 287.5 L 47 287.5 L 47.5 281 Z " /><path fill="rgb(57,81,127)" stroke="rgb(57,81,127)" stroke-width="1" opacity="0.49411764705882355" d="M 5.5 284 L 6 287.5 L 5 287.5 L 5.5 284 Z " /><path fill="rgb(57,81,127)" stroke="rgb(57,81,127)" stroke-width="1" opacity="0.49411764705882355" d="M 259.5 284 L 260 287.5 L 259 287.5 L 259.5 284 Z " /><path fill="rgb(57,81,127)" stroke="rgb(57,81,127)" stroke-width="1" opacity="0.49411764705882355" d="M 217.5 287 L 218 291.5 L 217 291.5 L 217.5 287 Z " /><path fill="rgb(57,81,127)" stroke="rgb(57,81,127)" stroke-width="1" opacity="0.49411764705882355" d="M 6.5 290 L 7 292.5 L 6 292.5 L 6.5 290 Z " /><path fill="rgb(57,81,127)" stroke="rgb(57,81,127)" stroke-width="1" opacity="0.49411764705882355" d="M 258.5 290 L 259 292.5 L 258 292.5 L 258.5 290 Z " /><path fill="rgb(57,81,127)" stroke="rgb(57,81,127)" stroke-width="1" opacity="0.49411764705882355" d="M 48.5 291 L 49 295.5 L 48 295.5 L 48.5 291 Z " /><path fill="rgb(57,81,127)" stroke="rgb(57,81,127)" stroke-width="1" opacity="0.49411764705882355" d="M 257.5 294 L 258 296.5 L 257 296.5 L 257.5 294 Z " /><path fill="rgb(57,81,127)" stroke="rgb(57,81,127)" stroke-width="1" opacity="0.49411764705882355" d="M 7.5 295 L 8 297.5 L 7 297.5 L 7.5 295 Z " /><path fill="rgb(57,81,127)" stroke="rgb(57,81,127)" stroke-width="1" opacity="0.49411764705882355" d="M 216.5 295 L 217 298.5 L 216 298.5 L 216.5 295 Z " /><path fill="rgb(57,81,127)" stroke="rgb(57,81,127)" stroke-width="1" opacity="0.49411764705882355" d="M 49.5 298 L 50 301.5 L 49 301.5 L 49.5 298 Z " /><path fill="rgb(57,81,127)" stroke="rgb(57,81,127)" stroke-width="1" opacity="0.49411764705882355" d="M 256.5 298 L 257 300.5 L 256 300.5 L 256.5 298 Z " /><path fill="rgb(57,81,127)" stroke="rgb(57,81,127)" stroke-width="1" opacity="0.49411764705882355" d="M 8.5 299 L 9 301.5 L 8 301.5 L 8.5 299 Z " /><path fill="rgb(57,81,127)" stroke="rgb(57,81,127)" stroke-width="1" opacity="0.49411764705882355" d="M 215.5 301 L 216 303.5 L 215 303.5 L 215.5 301 Z " /><path fill="rgb(57,81,127)" stroke="rgb(57,81,127)" stroke-width="1" opacity="0.49411764705882355" d="M 9.5 303 L 10 305.5 L 9 305.5 L 9.5 303 Z " /><path fill="rgb(57,81,127)" stroke="rgb(57,81,127)" stroke-width="1" opacity="0.49411764705882355" d="M 50.5 304 L 51 306.5 L 50 306.5 L 50.5 304 Z " /><path fill="rgb(57,81,127)" stroke="rgb(57,81,127)" stroke-width="1" opacity="0.49411764705882355" d="M 214.5 306 L 215 308.5 L 214 308.5 L 214.5 306 Z " /><path fill="rgb(57,81,127)" stroke="rgb(57,81,127)" stroke-width="1" opacity="0.49411764705882355" d="M 51.5 308 L 52 310.5 L 51 310.5 L 51.5 308 Z " /><path fill="rgb(57,81,127)" stroke="rgb(57,81,127)" stroke-width="1" opacity="0.49411764705882355" d="M 213.5 310 L 214 312.5 L 213 312.5 L 213.5 310 Z " /><path fill="rgb(57,81,127)" stroke="rgb(57,81,127)" stroke-width="1" opacity="0.49411764705882355" d="M 212.5 314 L 213 316.5 L 212 316.5 L 212.5 314 Z " /><path fill="rgb(57,81,127)" stroke="rgb(57,81,127)" stroke-width="1" opacity="0.49411764705882355" d="M 251.5 314 L 252 315.5 L 250.5 318 L 250 316.5 L 251.5 314 Z " /><path fill="rgb(57,81,127)" stroke="rgb(57,81,127)" stroke-width="1" opacity="0.49411764705882355" d="M 13.5 316 L 15 319.5 L 14 319.5 L 13.5 316 Z " /><path fill="rgb(57,81,127)" stroke="rgb(57,81,127)" stroke-width="1" opacity="0.49411764705882355" d="M 53.5 316 L 54 318.5 L 53 318.5 L 53.5 316 Z " /><path fill="rgb(57,81,127)" stroke="rgb(57,81,127)" stroke-width="1" opacity="0.49411764705882355" d="M 249.5 319 L 250 320.5 L 242.5 334 L 243 332.5 L 249.5 319 Z " /><path fill="rgb(57,81,127)" stroke="rgb(57,81,127)" stroke-width="1" opacity="0.49411764705882355" d="M 15.5 321 L 17 324.5 L 16 324.5 L 15.5 321 Z " /><path fill="rgb(57,81,127)" stroke="rgb(57,81,127)" stroke-width="1" opacity="0.49411764705882355" d="M 210.5 321 L 211 323.5 L 208.5 329 L 208 327.5 L 210.5 321 Z " /><path fill="rgb(57,81,127)" stroke="rgb(57,81,127)" stroke-width="1" opacity="0.49411764705882355" d="M 206.5 333 L 207 334.5 L 204.5 339 L 204 337.5 L 206.5 333 Z " /><path fill="rgb(57,81,127)" stroke="rgb(57,81,127)" stroke-width="1" opacity="0.49411764705882355" d="M 21.5 334 L 25 339.5 L 23 338.5 L 21.5 334 Z " /><path fill="rgb(57,81,127)" stroke="rgb(57,81,127)" stroke-width="1" opacity="0.49411764705882355" d="M 59.5 334 L 61 337.5 L 60 337.5 L 59.5 334 Z " /><path fill="rgb(57,81,127)" stroke="rgb(57,81,127)" stroke-width="1" opacity="0.49411764705882355" d="M 241.5 335 L 241 336.5 L 239.5 339 L 240 337.5 L 241.5 335 Z " /><path fill="rgb(57,81,127)" stroke="rgb(57,81,127)" stroke-width="1" opacity="0.49411764705882355" d="M 238.5 340 L 237.5 342 L 238.5 340 Z " /><path fill="rgb(57,81,127)" stroke="rgb(57,81,127)" stroke-width="1" opacity="0.49411764705882355" d="M 25.5 341 L 26.5 343 L 25.5 341 Z " /><path fill="rgb(57,81,127)" stroke="rgb(57,81,127)" stroke-width="1" opacity="0.49411764705882355" d="M 236.5 343 L 235.5 345 L 236.5 343 Z " /><path fill="rgb(57,81,127)" stroke="rgb(57,81,127)" stroke-width="1" opacity="0.49411764705882355" d="M 27.5 344 L 28.5 346 L 27.5 344 Z " /><path fill="rgb(57,81,127)" stroke="rgb(57,81,127)" stroke-width="1" opacity="0.49411764705882355" d="M 234.5 346 L 233 348.5 L 222.5 361 L 228 354.5 L 234.5 346 Z " /><path fill="rgb(57,81,127)" stroke="rgb(57,81,127)" stroke-width="1" opacity="0.49411764705882355" d="M 29.5 347 L 30.5 349 L 29.5 347 Z " /><path fill="rgb(57,81,127)" stroke="rgb(57,81,127)" stroke-width="1" opacity="0.49411764705882355" d="M 66.5 349 L 69 352.5 L 67 351.5 L 66.5 349 Z " /><path fill="rgb(57,81,127)" stroke="rgb(57,81,127)" stroke-width="1" opacity="0.49411764705882355" d="M 31.5 350 L 51 371.5 L 39 360.5 L 31.5 350 Z " /><path fill="rgb(57,81,127)" stroke="rgb(57,81,127)" stroke-width="1" opacity="0.49411764705882355" d="M 198.5 350 L 198 351.5 L 196.5 354 L 197 352.5 L 198.5 350 Z " /><path fill="rgb(57,81,127)" stroke="rgb(57,81,127)" stroke-width="1" opacity="0.49411764705882355" d="M 69.5 354 L 72 357.5 L 70 356.5 L 69.5 354 Z " /><path fill="rgb(57,81,127)" stroke="rgb(57,81,127)" stroke-width="1" opacity="0.49411764705882355" d="M 195.5 355 L 195 356.5 L 190.5 363 L 192 360.5 L 195.5 355 Z " /><path fill="rgb(57,81,127)" stroke="rgb(57,81,127)" stroke-width="1" opacity="0.49411764705882355" d="M 72.5 359 L 77 364.5 L 74 362.5 L 72.5 359 Z " /><path fill="rgb(57,81,127)" stroke="rgb(57,81,127)" stroke-width="1" opacity="0.49411764705882355" d="M 221.5 362 L 215.5 369 L 221.5 362 Z " /><path fill="rgb(57,81,127)" stroke="rgb(57,81,127)" stroke-width="1" opacity="0.49411764705882355" d="M 189.5 364 L 187.5 367 L 189.5 364 Z " /><path fill="rgb(57,81,127)" stroke="rgb(57,81,127)" stroke-width="1" opacity="0.49411764705882355" d="M 77.5 366 L 80.5 370 L 77.5 366 Z " /><path fill="rgb(57,81,127)" stroke="rgb(57,81,127)" stroke-width="1" opacity="0.49411764705882355" d="M 186.5 368 L 180.5 375 L 186.5 368 Z " /><path fill="rgb(57,81,127)" stroke="rgb(57,81,127)" stroke-width="1" opacity="0.49411764705882355" d="M 213.5 369 L 208.5 375 L 213.5 369 Z " /><path fill="rgb(57,81,127)" stroke="rgb(57,81,127)" stroke-width="1" opacity="0.49411764705882355" d="M 81.5 371 Q 89.6 380.9 101 387.5 L 99.5 387 Q 87.7 381 81.5 371 Z " /><path fill="rgb(57,81,127)" stroke="rgb(57,81,127)" stroke-width="1" opacity="0.49411764705882355" d="M 52.5 372 L 56.5 377 L 52.5 372 Z " /><path fill="rgb(57,81,127)" stroke="rgb(57,81,127)" stroke-width="1" opacity="0.49411764705882355" d="M 206.5 375 L 203.5 379 L 200.5 381 L 202.5 378 L 206.5 375 Z " /><path fill="rgb(57,81,127)" stroke="rgb(57,81,127)" stroke-width="1" opacity="0.49411764705882355" d="M 179.5 376 L 178.5 378 L 168.5 386 L 170.5 383 L 179.5 376 Z " /><path fill="rgb(57,81,127)" stroke="rgb(57,81,127)" stroke-width="1" opacity="0.49411764705882355" d="M 58.5 377 L 60.5 380 L 58.5 377 Z " /><path fill="rgb(57,81,127)" stroke="rgb(57,81,127)" stroke-width="1" opacity="0.49411764705882355" d="M 62.5 380 L 63.5 382 L 62.5 380 Z " /><path fill="rgb(57,81,127)" stroke="rgb(57,81,127)" stroke-width="1" opacity="0.49411764705882355" d="M 198.5 381 L 197.5 383 L 198.5 381 Z " /><path fill="rgb(57,81,127)" stroke="rgb(57,81,127)" stroke-width="1" opacity="0.49411764705882355" d="M 65.5 382 L 66.5 384 L 65.5 382 Z " /><path fill="rgb(57,81,127)" stroke="rgb(57,81,127)" stroke-width="1" opacity="0.49411764705882355" d="M 195.5 383 L 194.5 385 L 192.5 386 L 193.5 384 L 195.5 383 Z " /><path fill="rgb(57,81,127)" stroke="rgb(57,81,127)" stroke-width="1" opacity="0.49411764705882355" d="M 68.5 384 L 72 386.5 L 70.5 386 L 68.5 384 Z " /><path fill="rgb(57,81,127)" stroke="rgb(57,81,127)" stroke-width="1" opacity="0.49411764705882355" d="M 166.5 386 L 165.5 388 L 156.5 392 L 156.5 391 L 166.5 386 Z " /><path fill="rgb(57,81,127)" stroke="rgb(57,81,127)" stroke-width="1" opacity="0.49411764705882355" d="M 190.5 386 L 189.5 388 L 178.5 393 L 178.5 392 L 190.5 386 Z " /><path fill="rgb(57,81,127)" stroke="rgb(57,81,127)" stroke-width="1" opacity="0.49411764705882355" d="M 75.5 388 L 82 391.5 L 80.5 392 Q 75.9 390.8 75.5 388 Z " /><path fill="rgb(57,81,127)" stroke="rgb(57,81,127)" stroke-width="1" opacity="0.49411764705882355" d="M 85.5 393 L 89 394.5 L 87.5 395 L 85.5 393 Z " /><path fill="rgb(57,81,127)" stroke="rgb(57,81,127)" stroke-width="1" opacity="0.49411764705882355" d="M 114.5 393 L 117 393.5 L 114.5 394 L 114.5 393 Z " /><path fill="rgb(57,81,127)" stroke="rgb(57,81,127)" stroke-width="1" opacity="0.49411764705882355" d="M 149.5 393 L 152 393.5 L 149.5 394 L 149.5 393 Z " /><path fill="rgb(57,81,127)" stroke="rgb(57,81,127)" stroke-width="1" opacity="0.49411764705882355" d="M 118.5 394 L 122 394.5 L 118.5 395 L 118.5 394 Z " /><path fill="rgb(57,81,127)" stroke="rgb(57,81,127)" stroke-width="1" opacity="0.49411764705882355" d="M 144.5 394 L 147 394.5 L 144.5 395 L 144.5 394 Z " /><path fill="rgb(57,81,127)" stroke="rgb(57,81,127)" stroke-width="1" opacity="0.49411764705882355" d="M 125.5 395 L 140 395.5 L 125.5 396 L 125.5 395 Z " /><path fill="rgb(57,81,127)" stroke="rgb(57,81,127)" stroke-width="1" opacity="0.49411764705882355" d="M 170.5 395 L 172 395.5 L 164.5 398 L 164.5 397 L 170.5 395 Z " /><path fill="rgb(57,81,127)" stroke="rgb(57,81,127)" stroke-width="1" opacity="0.49411764705882355" d="M 99.5 398 L 102 398.5 L 99.5 399 L 99.5 398 Z " /><path fill="rgb(57,81,127)" stroke="rgb(57,81,127)" stroke-width="1" opacity="0.49411764705882355" d="M 103.5 399 L 106 399.5 L 103.5 400 L 103.5 399 Z " /><path fill="rgb(57,81,127)" stroke="rgb(57,81,127)" stroke-width="1" opacity="0.49411764705882355" d="M 157.5 399 L 160 399.5 L 157.5 400 L 157.5 399 Z " /><path fill="rgb(57,81,127)" stroke="rgb(57,81,127)" stroke-width="1" opacity="0.49411764705882355" d="M 107.5 400 L 110 400.5 L 107.5 401 L 107.5 400 Z " /><path fill="rgb(57,81,127)" stroke="rgb(57,81,127)" stroke-width="1" opacity="0.49411764705882355" d="M 152.5 400 L 155 400.5 L 152.5 401 L 152.5 400 Z " /><path fill="rgb(57,81,127)" stroke="rgb(57,81,127)" stroke-width="1" opacity="0.49411764705882355" d="M 113.5 401 L 117 401.5 L 113.5 402 L 113.5 401 Z " /><path fill="rgb(57,81,127)" stroke="rgb(57,81,127)" stroke-width="1" opacity="0.49411764705882355" d="M 145.5 401 L 150 401.5 L 145.5 402 L 145.5 401 Z " /><path fill="rgb(57,81,127)" stroke="rgb(57,81,127)" stroke-width="1" opacity="0.49411764705882355" d="M 121.5 402 L 141 402.5 L 121.5 403 L 121.5 402 Z " /><path fill="rgb(57,82,127)" stroke="rgb(57,82,127)" stroke-width="1" opacity="1" d="M 82.5 1 L 183.5 1 L 186 3.5 L 214 39.5 L 215 43.5 L 146 118.5 L 164.5 122 L 188.5 132 Q 208.4 143.1 223 159.5 Q 241.1 178.9 252 205.5 L 259 229.5 L 260 241.5 L 261 242.5 L 262 261.5 L 261 262.5 L 261 276.5 L 260 277.5 L 259 289.5 L 250 318.5 Q 236.9 348.4 214.5 369 Q 198 384.5 175.5 394 L 160.5 399 L 144.5 402 L 117.5 402 Q 66.9 393.1 40 360.5 Q 19.8 338.7 10 306.5 L 5 283.5 L 4 249.5 L 9 220.5 L 17 198.5 Q 30.6 169.6 53.5 150 Q 67.5 137.5 85.5 129 L 107.5 121 L 121 118.5 L 96 91.5 L 96 90 Q 93.3 91.1 94 88.5 L 52 42.5 L 82.5 1 Z M 92 8 L 92 11 L 104 34 L 124 10 L 124 8 L 92 8 Z M 143 8 L 143 11 L 164 34 L 175 10 L 175 8 L 143 8 Z M 134 11 L 111 39 L 155 39 L 155 37 L 134 11 Z M 84 13 L 65 38 L 66 39 L 96 39 L 85 15 Q 86 12 84 13 Z M 183 13 L 171 38 L 172 39 L 202 39 L 183 13 Z M 67 46 L 72 54 L 116 102 L 122 107 L 100 48 L 99 46 L 67 46 Z M 109 46 L 134 113 L 137 107 L 158 50 L 158 46 L 109 46 Z M 169 46 L 161 63 L 146 105 L 147 106 L 201 47 L 169 46 Z M 119 125 Q 100 128 90 139 Q 70 157 60 184 L 54 202 L 50 220 L 49 231 L 48 232 L 48 240 L 47 241 L 47 257 L 46 258 L 47 288 L 53 319 Q 62 350 81 372 L 99 387 L 115 394 L 126 396 L 140 396 L 158 392 Q 170 387 179 378 Q 196 360 207 335 L 215 309 L 218 292 L 218 283 L 219 282 L 219 247 L 218 246 L 218 236 L 213 208 L 208 191 L 200 172 L 186 150 Q 173 131 147 125 L 141 125 L 135 130 L 133 130 L 128 125 L 119 125 Z " /></svg>